<?xml version="1.0" standalone="no"?>
<!DOCTYPE svg PUBLIC "-//W3C//DTD SVG 20010904//EN"
 "http://www.w3.org/TR/2001/REC-SVG-20010904/DTD/svg10.dtd">
<svg version="1.0" xmlns="http://www.w3.org/2000/svg"
 width="1648.000000pt" height="1648.000000pt" viewBox="0 0 1648.000000 1648.000000"
 preserveAspectRatio="xMidYMid meet">
<metadata>
Created by potrace 1.14, written by Peter Selinger 2001-2017
</metadata>
<g transform="translate(0.000000,1648.000000) scale(0.100000,-0.100000)"
fill="#000000" stroke="none">
<path d="M8137 15714 c-1 -1 -78 -5 -172 -8 -167 -6 -224 -9 -355 -21 -36 -4
-81 -8 -100 -10 -19 -1 -35 -4 -35 -5 0 -1 -18 -3 -40 -5 -57 -5 -136 -15
-165 -21 -14 -3 -37 -6 -52 -7 -16 0 -28 -4 -28 -7 0 -4 -15 -7 -32 -7 -18 -1
-46 -4 -63 -8 -16 -4 -40 -8 -52 -8 -13 -1 -23 -3 -23 -6 0 -4 -10 -7 -22 -8
-30 -2 -73 -10 -73 -13 0 -1 -9 -3 -20 -5 -42 -6 -91 -16 -130 -27 -22 -6 -46
-13 -54 -14 -8 -2 -26 -6 -40 -10 -14 -4 -32 -6 -38 -5 -7 1 -13 -3 -13 -9 0
-6 -4 -8 -10 -5 -5 3 -15 3 -22 -1 -7 -4 -23 -9 -36 -10 -13 -2 -31 -9 -40
-16 -9 -8 -13 -8 -9 -1 4 6 -16 2 -46 -9 -28 -11 -62 -22 -74 -24 -12 -2 -35
-9 -50 -16 -16 -6 -35 -12 -43 -13 -15 -2 -34 -8 -80 -27 -14 -5 -36 -12 -50
-15 -13 -2 -30 -9 -37 -15 -7 -6 -13 -7 -13 -3 0 4 -7 2 -15 -5 -8 -7 -15 -9
-15 -5 0 4 -6 2 -13 -4 -8 -6 -17 -8 -20 -4 -4 3 -7 1 -7 -6 0 -7 -4 -10 -9
-6 -5 3 -12 1 -16 -5 -4 -6 -10 -8 -15 -5 -5 3 -15 -1 -23 -9 -8 -8 -17 -13
-20 -10 -3 4 -12 2 -19 -2 -7 -5 -20 -9 -28 -11 -8 -1 -16 -6 -18 -12 -2 -5
-10 -7 -18 -4 -8 3 -14 -1 -14 -8 0 -7 -3 -9 -7 -6 -3 4 -17 0 -30 -8 -13 -9
-23 -13 -23 -9 0 3 -11 -1 -25 -10 -13 -9 -31 -16 -40 -16 -8 0 -15 -4 -15 -8
0 -4 -9 -8 -20 -9 -11 -1 -33 -10 -48 -21 -15 -11 -33 -17 -39 -15 -7 3 -13 0
-13 -6 0 -6 -8 -11 -19 -11 -10 0 -24 -7 -31 -15 -7 -8 -16 -13 -20 -10 -5 3
-16 -2 -24 -11 -9 -8 -16 -12 -16 -9 0 4 -11 0 -25 -9 -14 -9 -25 -13 -25 -9
0 4 -7 -2 -16 -13 -8 -10 -13 -14 -9 -7 3 7 -21 -3 -55 -22 -33 -19 -60 -31
-60 -28 0 4 -6 -2 -14 -13 -8 -10 -18 -16 -22 -11 -4 4 -19 -3 -32 -15 -14
-13 -22 -17 -17 -9 9 16 -43 -16 -63 -39 -12 -13 -12 -13 -6 0 6 11 2 11 -16
-3 -14 -10 -33 -20 -42 -24 -10 -3 -18 -10 -18 -15 0 -5 -4 -6 -10 -3 -6 3
-10 1 -10 -4 0 -6 -3 -10 -7 -10 -21 3 -33 -2 -27 -13 4 -7 3 -8 -4 -4 -6 4
-20 -2 -31 -13 -11 -11 -22 -17 -25 -14 -3 4 -6 1 -6 -6 0 -7 -4 -10 -9 -7 -5
3 -14 0 -20 -8 -7 -8 -23 -17 -36 -20 -14 -4 -25 -11 -25 -16 0 -6 -7 -10 -15
-10 -8 0 -15 -5 -15 -11 0 -5 -4 -7 -10 -4 -5 3 -10 1 -10 -4 0 -6 -7 -11 -15
-11 -8 0 -15 -5 -15 -11 0 -5 -4 -8 -9 -5 -5 3 -12 -1 -15 -10 -3 -8 -10 -12
-16 -9 -5 3 -10 3 -10 -2 0 -4 -12 -17 -27 -27 -16 -12 -23 -14 -18 -5 5 8 -3
4 -17 -8 -13 -13 -29 -23 -34 -23 -5 0 -25 -14 -44 -32 -19 -17 -35 -30 -35
-29 0 2 -12 -3 -27 -10 -15 -6 -25 -15 -23 -19 3 -5 -5 -10 -18 -14 -12 -3
-34 -17 -49 -31 -16 -14 -28 -22 -28 -18 -1 4 -10 -3 -20 -16 -11 -13 -20 -21
-20 -17 0 5 -26 -14 -54 -40 -6 -6 -15 -12 -21 -13 -5 -2 -9 -7 -7 -13 1 -5
-2 -7 -7 -4 -5 4 -14 -2 -20 -11 -6 -10 -11 -14 -11 -9 0 5 -12 -4 -26 -20
-15 -16 -23 -22 -18 -14 4 8 -10 -1 -33 -20 -22 -19 -55 -48 -74 -65 -19 -16
-37 -28 -41 -27 -5 1 -8 -2 -8 -6 0 -5 -20 -23 -45 -41 -25 -18 -42 -37 -39
-43 4 -7 2 -8 -4 -4 -7 4 -12 2 -12 -3 0 -6 -5 -11 -11 -11 -13 0 -49 -38 -49
-52 0 -4 -3 -7 -8 -5 -11 3 -62 -39 -55 -47 3 -3 0 -6 -8 -6 -15 0 -55 -39
-41 -41 4 0 -3 -4 -16 -10 -13 -5 -20 -13 -17 -19 4 -6 1 -9 -7 -8 -7 2 -12
-3 -10 -10 1 -8 -2 -11 -8 -7 -5 3 -10 2 -10 -4 0 -5 -9 -13 -21 -16 -11 -4
-18 -9 -16 -11 7 -7 -67 -81 -75 -77 -5 2 -8 -1 -8 -6 0 -6 -28 -39 -63 -74
-34 -34 -87 -91 -117 -126 -30 -35 -64 -72 -74 -82 -11 -11 -17 -19 -14 -19 4
0 -6 -13 -20 -28 -53 -56 -91 -102 -85 -102 4 0 -2 -7 -13 -15 -10 -8 -15 -15
-11 -15 5 0 -7 -13 -25 -30 -18 -16 -29 -30 -24 -30 4 0 -2 -9 -15 -21 -13
-11 -17 -18 -9 -14 8 4 4 -3 -10 -14 -14 -11 -22 -21 -18 -21 4 0 -6 -14 -22
-32 -16 -17 -26 -36 -23 -41 3 -6 1 -7 -5 -3 -13 8 -35 -28 -24 -39 4 -5 2 -5
-4 -2 -11 6 -18 -3 -23 -25 -1 -4 -13 -19 -26 -34 -14 -15 -23 -30 -20 -33 2
-4 -4 -15 -13 -24 -24 -22 -42 -45 -42 -53 0 -3 -11 -20 -25 -36 -14 -16 -23
-33 -20 -38 3 -4 -2 -11 -11 -14 -8 -3 -13 -10 -10 -15 4 -5 3 -11 -2 -13 -9
-4 -57 -80 -57 -91 0 -4 -6 -12 -14 -16 -8 -5 -10 -14 -6 -21 5 -9 4 -11 -3
-6 -7 4 -12 2 -12 -3 0 -20 -3 -26 -19 -38 -9 -7 -12 -13 -8 -13 4 0 -2 -10
-13 -22 -11 -12 -18 -28 -16 -35 3 -7 1 -13 -5 -13 -6 0 -7 -4 -4 -10 3 -5 2
-10 -3 -10 -6 0 -19 -18 -31 -40 -11 -22 -18 -40 -15 -40 3 0 -2 -7 -10 -16
-9 -8 -14 -20 -11 -25 4 -5 2 -9 -3 -9 -7 0 -41 -60 -43 -78 0 -4 -8 -15 -16
-24 -9 -10 -13 -18 -8 -18 4 0 2 -7 -5 -15 -7 -8 -9 -15 -6 -15 4 0 0 -7 -8
-16 -9 -8 -16 -24 -16 -35 0 -10 -5 -19 -11 -19 -6 0 -8 -7 -5 -16 3 -8 2 -12
-4 -9 -6 3 -10 -1 -10 -9 0 -8 -11 -35 -24 -61 -14 -25 -19 -42 -13 -38 7 3 5
-2 -5 -13 -9 -10 -18 -28 -20 -39 -1 -11 -9 -26 -16 -33 -7 -8 -9 -18 -6 -24
4 -6 1 -14 -5 -18 -7 -4 -14 -13 -16 -21 -1 -8 -6 -24 -10 -36 -4 -12 -6 -25
-5 -29 1 -4 -3 -10 -9 -13 -6 -4 -12 -16 -14 -26 -2 -11 -9 -30 -15 -42 -7
-13 -10 -23 -6 -23 3 0 1 -7 -6 -15 -7 -8 -10 -15 -6 -15 4 0 -2 -12 -11 -27
-14 -21 -15 -25 -3 -18 13 7 13 6 2 -7 -16 -20 -63 -158 -57 -168 3 -5 1 -10
-4 -12 -6 -1 -11 -14 -13 -28 -2 -14 -7 -31 -11 -37 -5 -7 -6 -13 -2 -13 3 0
-2 -14 -10 -31 -9 -17 -14 -33 -11 -36 3 -3 -1 -21 -10 -41 -8 -19 -12 -37
-10 -39 2 -3 -2 -20 -10 -39 -8 -18 -14 -37 -13 -41 1 -5 0 -10 -1 -13 -1 -3
-3 -13 -6 -22 -2 -10 -6 -26 -8 -35 -3 -10 -5 -19 -6 -20 -2 -2 -4 -12 -5 -23
-1 -11 -4 -22 -5 -25 -1 -3 -4 -14 -5 -25 -1 -11 -4 -23 -5 -27 -2 -5 -4 -12
-5 -18 -2 -14 -14 -75 -21 -105 -3 -14 -7 -38 -9 -55 -3 -28 -8 -52 -19 -101
-2 -12 -8 -45 -11 -75 -4 -30 -9 -65 -11 -79 -4 -26 -11 -83 -28 -255 -26
-247 -26 -734 -1 -1010 3 -27 7 -70 9 -95 2 -25 5 -45 6 -45 1 0 4 -16 5 -35
10 -102 40 -305 45 -305 1 0 4 -13 5 -30 8 -65 14 -107 21 -128 8 -22 10 -33
19 -77 10 -54 17 -86 22 -100 4 -8 5 -20 4 -27 -1 -6 3 -14 8 -17 5 -3 7 -15
4 -26 -3 -11 -1 -20 4 -20 7 0 13 -22 16 -67 0 -7 4 -13 9 -13 5 0 7 -4 4 -8
-3 -5 1 -21 9 -36 10 -18 10 -24 2 -19 -9 5 -9 4 0 -8 6 -8 14 -27 17 -43 3
-15 11 -35 18 -44 11 -13 11 -14 0 -8 -10 6 -9 0 2 -23 9 -17 14 -31 10 -31
-4 0 -1 -7 6 -15 7 -8 9 -15 5 -15 -4 0 -2 -7 5 -15 7 -8 10 -15 6 -15 -4 0 0
-13 8 -29 9 -16 12 -31 9 -35 -4 -3 -1 -6 6 -6 7 0 9 -5 6 -11 -4 -5 0 -18 8
-27 8 -9 13 -25 12 -34 -2 -10 1 -18 6 -18 6 0 8 -4 5 -9 -3 -5 1 -14 9 -21 8
-7 13 -16 10 -20 -3 -5 1 -24 9 -42 8 -18 21 -49 30 -68 27 -64 39 -95 42
-110 2 -8 8 -16 14 -18 5 -2 8 -8 4 -13 -3 -5 0 -9 7 -9 7 0 9 -3 6 -6 -3 -4
-1 -16 5 -28 7 -11 13 -23 13 -26 4 -20 41 -90 48 -90 4 0 5 -5 2 -11 -4 -6 4
-22 16 -36 13 -15 18 -23 10 -18 -18 10 -7 -9 23 -44 12 -13 15 -21 8 -17 -15
9 45 -96 62 -106 6 -4 7 -8 3 -8 -7 0 20 -57 33 -70 3 -3 17 -27 30 -53 14
-26 33 -56 42 -66 9 -11 15 -21 12 -23 -2 -3 8 -18 23 -34 15 -16 26 -30 25
-31 -7 -10 0 -23 10 -17 6 4 8 3 4 -4 -3 -6 4 -21 16 -33 13 -12 16 -18 9 -14
-9 5 -5 -5 8 -23 12 -18 27 -32 32 -32 6 0 7 -4 4 -10 -3 -5 -1 -10 4 -10 6 0
11 -5 11 -10 0 -11 11 -26 47 -66 12 -13 19 -24 16 -24 -4 0 2 -7 13 -16 10
-8 12 -12 4 -8 -14 8 19 -39 67 -91 12 -14 20 -25 18 -25 -6 0 21 -34 52 -67
12 -13 19 -23 15 -23 -4 0 0 -6 9 -13 8 -7 18 -20 22 -30 4 -10 12 -15 17 -12
6 4 9 3 8 -2 -4 -13 22 -54 31 -48 5 3 12 -5 15 -18 3 -12 28 -46 56 -74 27
-29 50 -56 50 -60 0 -6 14 -22 86 -98 19 -21 34 -41 34 -47 0 -5 4 -6 10 -3 6
3 10 1 10 -5 0 -7 15 -26 32 -44 18 -18 62 -63 97 -102 35 -38 60 -63 56 -55
-5 9 -4 12 3 7 7 -4 12 -13 12 -20 0 -15 50 -64 51 -50 0 5 4 -1 10 -14 5 -14
13 -20 20 -16 7 4 9 3 6 -3 -4 -6 1 -17 10 -24 14 -12 16 -12 8 0 -5 10 -4 12
3 7 7 -4 12 -13 12 -21 0 -8 5 -17 12 -21 7 -5 9 -2 4 7 -4 8 0 5 8 -5 9 -11
16 -23 16 -28 0 -4 4 -8 10 -8 5 0 23 -13 38 -30 16 -16 35 -30 42 -30 7 0 11
-3 7 -6 -7 -7 17 -34 31 -34 5 0 17 -11 26 -25 9 -14 21 -23 26 -20 5 3 12 0
16 -6 5 -8 3 -9 -7 -4 -12 8 -12 6 0 -8 7 -9 17 -17 22 -17 4 0 19 -10 31 -22
59 -57 123 -108 135 -108 8 0 11 -5 8 -10 -3 -6 2 -13 12 -17 10 -4 20 -9 23
-13 6 -8 150 -120 179 -140 13 -8 27 -14 33 -12 5 1 7 -1 4 -6 -2 -4 20 -23
50 -42 30 -19 54 -38 54 -42 0 -5 7 -8 15 -8 8 0 15 -4 15 -8 0 -5 12 -15 28
-23 15 -8 33 -20 40 -27 8 -7 19 -9 25 -5 7 3 9 3 5 -2 -6 -7 54 -55 69 -55 3
0 27 -16 54 -36 27 -20 56 -37 65 -38 9 -1 19 -7 22 -13 4 -6 14 -13 22 -15 8
-2 21 -9 28 -16 8 -7 18 -9 24 -6 7 4 8 2 4 -4 -6 -11 0 -14 20 -11 4 0 10 -3
13 -8 3 -4 15 -15 25 -23 18 -13 19 -13 11 0 -4 8 2 5 14 -8 12 -12 26 -20 32
-17 5 4 9 1 9 -4 0 -11 68 -46 83 -43 4 1 7 -3 7 -9 0 -5 4 -8 9 -4 6 3 14 -2
19 -10 4 -9 18 -17 30 -18 12 -1 22 -4 22 -7 0 -4 16 -12 35 -20 19 -8 35 -18
35 -23 0 -5 7 -7 15 -3 8 3 18 -1 22 -8 5 -8 17 -16 28 -18 11 -1 26 -9 33
-16 8 -7 17 -10 22 -7 5 3 10 1 12 -4 1 -5 12 -11 23 -13 11 -1 25 -9 30 -16
6 -7 20 -14 33 -15 12 0 22 -5 22 -10 0 -4 5 -5 10 -2 6 3 10 1 10 -6 0 -7 3
-10 6 -7 3 4 32 -7 65 -23 33 -17 64 -27 68 -24 5 3 11 2 13 -2 5 -13 79 -44
89 -38 5 4 9 3 9 -2 0 -4 12 -13 28 -19 39 -15 95 -35 107 -38 6 -1 20 -7 31
-14 12 -6 24 -8 28 -4 4 3 10 2 14 -4 8 -11 120 -49 140 -47 6 0 12 -3 12 -8
0 -5 3 -8 8 -8 4 1 9 0 12 -1 3 -1 12 -3 20 -5 8 -2 29 -8 47 -13 17 -6 34 -8
37 -4 3 3 6 0 6 -7 0 -7 4 -10 9 -6 5 3 12 1 16 -5 4 -6 10 -8 15 -5 5 3 17 1
27 -4 10 -5 32 -13 48 -17 39 -10 45 -11 48 -13 1 -2 13 -5 27 -8 38 -7 55
-11 58 -13 1 -2 5 -3 10 -4 4 -1 13 -5 21 -10 11 -7 12 -6 6 5 -8 12 -6 12 8
0 9 -7 17 -10 17 -6 0 4 6 3 13 -3 10 -9 42 -17 112 -27 11 -2 20 -4 20 -5 0
-2 32 -10 55 -14 8 -1 29 -6 45 -9 17 -4 41 -10 55 -13 14 -3 32 -7 40 -8 8
-2 31 -6 50 -10 19 -3 46 -8 60 -10 14 -3 25 -5 25 -6 0 -1 14 -4 30 -6 57 -6
81 -10 91 -17 6 -3 19 -4 30 -3 10 2 24 1 29 -2 6 -4 21 -7 35 -9 14 -1 41 -5
60 -7 19 -3 53 -8 75 -10 22 -3 58 -8 80 -11 37 -5 83 -10 195 -20 245 -21
619 -22 815 -1 22 3 74 7 114 10 41 3 83 9 93 12 10 3 35 8 56 10 20 2 48 6
62 9 68 11 87 15 110 19 14 3 39 7 55 10 17 3 41 8 55 12 14 3 33 6 43 6 9 -1
17 4 17 9 0 6 5 7 10 4 6 -3 15 -3 22 1 7 4 28 9 48 11 19 2 37 8 38 14 2 5 8
7 12 4 5 -3 25 1 44 9 19 8 37 12 40 9 3 -3 12 0 21 7 8 7 15 9 15 4 0 -4 5
-3 11 3 6 6 18 9 25 6 8 -3 14 -1 14 4 0 5 12 10 28 11 15 1 28 6 30 12 2 5
10 6 18 3 8 -3 14 0 14 7 0 7 7 10 15 6 8 -3 15 -1 15 5 0 6 4 8 9 5 5 -3 24
0 42 8 19 8 39 15 44 16 6 1 19 7 30 13 11 6 25 12 30 13 6 1 24 8 40 15 17 7
33 12 38 11 4 -1 7 3 7 10 0 6 3 8 6 5 4 -3 16 -1 28 5 11 7 26 13 31 14 28 6
65 25 65 33 0 6 7 8 15 5 8 -4 15 -1 15 5 0 6 3 11 8 10 14 -2 52 14 52 22 0
5 7 5 17 2 11 -4 14 -3 9 5 -4 8 -2 10 7 6 8 -3 17 2 20 10 4 9 12 13 19 11 8
-3 25 5 38 17 14 13 25 21 25 19 0 -9 65 24 65 32 0 5 4 6 9 2 6 -3 14 2 19
11 5 9 13 16 18 16 26 3 43 11 37 21 -3 6 -1 7 5 3 7 -4 21 2 33 13 12 11 25
18 29 16 4 -2 18 6 31 18 13 12 27 23 31 23 5 1 13 2 19 3 5 0 7 7 3 14 -4 6
-4 9 1 5 10 -10 54 14 89 49 16 15 26 21 21 13 -9 -16 28 12 53 40 10 11 11
11 6 1 -4 -7 7 -3 25 10 17 12 31 27 31 31 0 5 5 6 10 3 6 -3 13 0 16 8 3 9
19 21 35 27 16 7 29 19 29 27 0 8 4 12 9 8 5 -3 22 6 37 20 15 14 30 25 33 25
3 0 23 16 44 35 20 18 37 32 37 29 0 -3 6 1 14 8 8 7 11 17 8 22 -3 5 -1 6 4
3 6 -3 28 11 50 31 21 20 42 35 47 34 4 -1 7 5 7 13 0 8 6 14 13 13 6 -2 11 3
9 10 -1 8 2 11 6 8 5 -3 18 5 28 19 10 13 20 23 23 21 3 -2 14 5 24 16 9 10
14 18 10 18 -5 0 3 6 17 13 14 8 24 19 22 25 -1 7 1 11 5 10 12 -4 54 28 46
35 -3 4 1 7 10 7 9 0 17 5 17 10 0 6 6 10 14 10 7 0 21 10 30 22 9 13 14 16 9
8 -4 -8 8 -3 26 12 18 16 39 28 47 28 8 0 14 5 14 10 0 6 4 10 9 10 5 0 22 5
38 12 15 6 31 11 36 10 4 -1 7 2 7 6 0 8 17 10 82 12 15 1 37 -6 51 -14 13 -9
27 -13 30 -9 4 3 7 1 7 -5 0 -7 9 -12 20 -12 11 0 20 -4 20 -9 0 -10 39 -27
53 -23 5 1 6 -2 2 -8 -6 -9 7 -14 28 -11 4 0 7 -3 7 -8 0 -5 12 -14 28 -20 15
-7 50 -24 77 -40 28 -16 53 -27 58 -24 4 2 7 0 7 -4 0 -5 23 -21 50 -36 28
-15 50 -24 50 -20 0 4 6 -1 13 -10 6 -9 19 -17 27 -19 8 -2 21 -9 28 -16 8 -7
18 -10 23 -7 5 4 9 2 9 -4 0 -6 17 -18 38 -28 20 -9 39 -19 42 -22 3 -4 19
-13 35 -21 17 -8 42 -22 56 -32 14 -10 29 -15 33 -11 3 3 6 1 6 -5 0 -7 7 -12
15 -12 8 0 15 -5 15 -11 0 -5 5 -7 10 -4 5 3 10 1 10 -5 0 -6 4 -8 10 -5 5 3
10 2 10 -4 0 -6 11 -13 25 -17 14 -3 25 -10 25 -14 0 -5 14 -11 30 -15 17 -4
28 -10 25 -14 -2 -5 16 -17 40 -27 25 -10 45 -21 45 -25 0 -7 39 -22 53 -20 4
1 7 -3 7 -9 0 -5 14 -16 30 -25 17 -9 30 -13 30 -10 0 3 9 -4 20 -15 12 -12
25 -18 30 -15 6 4 10 1 10 -5 0 -6 5 -8 10 -5 6 3 10 2 10 -3 0 -6 18 -19 40
-31 22 -11 40 -18 40 -14 0 4 7 -2 15 -13 8 -10 15 -15 15 -11 0 5 7 1 16 -7
8 -9 20 -13 26 -10 6 4 8 2 4 -4 -5 -9 27 -27 44 -24 3 0 9 -6 13 -14 4 -8 13
-14 20 -14 7 0 23 -9 37 -20 14 -11 33 -20 43 -20 10 0 16 -4 13 -9 -3 -5 5
-12 19 -15 14 -4 25 -11 25 -17 0 -6 5 -7 10 -4 6 3 10 1 10 -5 0 -6 5 -8 10
-5 6 3 10 1 10 -5 0 -6 5 -8 10 -5 6 3 10 1 10 -4 0 -6 7 -11 15 -11 8 0 15
-5 15 -11 0 -5 4 -8 9 -5 5 3 14 -1 21 -9 7 -8 19 -15 26 -15 8 0 14 -4 14
-10 0 -5 6 -10 14 -10 7 0 19 -7 26 -15 7 -9 19 -14 27 -11 8 3 11 1 8 -4 -3
-6 -1 -11 4 -11 6 -1 16 -2 21 -3 6 0 15 -7 19 -15 5 -7 13 -11 19 -7 5 3 12
0 15 -7 3 -6 22 -21 43 -32 22 -10 51 -27 66 -37 14 -10 34 -18 43 -18 9 0 13
-4 10 -10 -3 -5 1 -10 9 -10 9 0 14 -8 13 -20 -1 -11 -4 -20 -8 -20 -4 0 -14
-12 -22 -27 -33 -64 -36 -69 -121 -193 -13 -19 -21 -39 -18 -44 3 -5 1 -7 -4
-4 -5 3 -18 -6 -28 -20 -12 -16 -14 -23 -5 -18 8 4 2 -2 -13 -14 -16 -12 -28
-26 -28 -31 0 -5 -8 -17 -17 -27 -10 -10 -25 -29 -33 -42 -8 -12 -24 -31 -34
-41 -11 -11 -16 -19 -11 -19 5 0 -1 -7 -13 -16 -12 -8 -22 -22 -22 -31 0 -9
-3 -13 -7 -10 -6 7 -38 -31 -38 -45 0 -3 -4 -10 -9 -15 -5 -5 -6 -2 -2 7 4 8
-8 -3 -28 -25 -19 -21 -32 -43 -30 -47 3 -5 0 -7 -8 -6 -7 2 -12 -2 -11 -9 2
-6 -6 -15 -17 -18 -11 -4 -20 -13 -20 -21 0 -8 -4 -12 -10 -9 -5 3 -10 2 -10
-2 0 -5 -7 -18 -16 -29 -8 -10 -12 -12 -8 -4 7 13 6 13 -9 1 -10 -8 -16 -16
-13 -18 6 -6 -38 -50 -46 -46 -5 2 -8 -3 -8 -12 0 -9 -4 -13 -10 -10 -5 3 -10
2 -10 -3 0 -11 -61 -75 -76 -81 -5 -1 -8 -6 -7 -10 0 -3 -5 -12 -13 -19 -8 -7
-14 -9 -14 -5 0 4 -15 -9 -33 -28 -18 -19 -47 -45 -65 -58 -18 -12 -30 -27
-27 -32 4 -5 1 -9 -5 -9 -6 0 -22 -11 -35 -25 -14 -13 -25 -22 -25 -20 0 3
-17 -11 -37 -30 -20 -19 -41 -35 -46 -35 -4 0 -5 -5 -1 -12 4 -6 3 -8 -3 -5
-6 4 -22 -2 -34 -14 -13 -11 -18 -17 -10 -13 9 5 12 3 7 -4 -4 -7 -13 -12 -21
-12 -7 0 -31 -16 -52 -36 -21 -20 -39 -35 -41 -35 -3 2 -71 -48 -90 -67 -8 -7
-27 -19 -43 -27 -15 -9 -33 -24 -39 -35 -6 -11 -14 -19 -18 -18 -16 3 -41 -15
-35 -25 3 -5 1 -7 -4 -4 -6 4 -22 -4 -37 -18 -15 -13 -30 -25 -34 -25 -4 0
-20 -12 -36 -27 -17 -16 -26 -22 -21 -14 5 8 -13 0 -38 -19 -26 -18 -47 -37
-47 -42 0 -4 -3 -7 -7 -7 -21 3 -33 -2 -27 -13 4 -7 3 -8 -4 -4 -6 4 -20 -2
-32 -14 -11 -11 -23 -20 -27 -20 -5 0 -15 -6 -24 -14 -9 -8 -26 -17 -38 -21
-12 -3 -21 -11 -21 -17 0 -6 -3 -8 -7 -5 -4 4 -20 -5 -36 -20 -17 -16 -27 -22
-23 -15 7 11 4 11 -12 1 -12 -7 -18 -17 -15 -23 3 -5 1 -6 -5 -2 -6 3 -16 1
-24 -6 -7 -7 -20 -14 -28 -16 -8 -2 -18 -9 -22 -15 -4 -7 -12 -13 -18 -13 -5
-1 -15 -2 -21 -3 -5 0 -7 -6 -4 -11 4 -6 3 -9 -2 -8 -11 4 -87 -34 -91 -45 -2
-4 -8 -5 -13 -1 -5 3 -9 0 -9 -5 0 -6 -7 -11 -15 -11 -8 0 -15 -5 -15 -12 0
-6 -3 -8 -7 -5 -3 4 -15 -1 -26 -10 -10 -10 -20 -16 -21 -15 -3 7 -56 -22 -56
-30 0 -5 -4 -6 -10 -3 -5 3 -10 1 -10 -6 0 -7 -3 -10 -6 -6 -4 3 -21 -1 -38
-10 -17 -10 -34 -16 -38 -15 -5 1 -8 -2 -8 -6 0 -5 -16 -14 -35 -22 -19 -8
-35 -18 -35 -24 0 -5 -3 -7 -6 -3 -4 3 -21 -1 -38 -10 -17 -10 -34 -16 -38
-15 -5 1 -8 -3 -8 -8 0 -6 -9 -10 -20 -10 -11 0 -20 -4 -20 -10 0 -5 -3 -10
-7 -9 -16 2 -53 -14 -53 -22 0 -5 -3 -8 -7 -7 -5 1 -18 -3 -30 -10 -13 -7 -23
-9 -23 -5 0 4 -5 2 -12 -5 -7 -7 -20 -12 -29 -12 -9 0 -22 -7 -29 -15 -7 -8
-16 -13 -20 -10 -3 2 -17 -3 -30 -12 -13 -10 -33 -18 -44 -18 -11 -1 -22 -7
-24 -13 -2 -6 -10 -8 -18 -5 -8 3 -14 -1 -14 -8 0 -7 -3 -9 -6 -6 -4 3 -15 2
-26 -4 -11 -6 -29 -12 -40 -14 -12 -3 -25 -10 -28 -16 -4 -6 -10 -10 -14 -10
-18 2 -66 -13 -66 -20 0 -5 -3 -8 -7 -8 -5 1 -10 0 -13 -1 -3 -1 -13 -3 -23
-5 -10 -2 -34 -11 -53 -20 -19 -9 -43 -18 -54 -20 -10 -2 -29 -9 -42 -16 -13
-7 -24 -12 -25 -11 -3 2 -7 1 -20 -3 -5 -1 -23 -6 -40 -10 -18 -4 -33 -12 -33
-17 0 -5 -4 -6 -10 -3 -5 3 -16 3 -22 -2 -7 -4 -16 -8 -20 -9 -5 -1 -9 -2 -10
-3 -2 -2 -14 -4 -28 -7 -14 -2 -34 -8 -45 -13 -22 -9 -132 -42 -152 -45 -7 -1
-15 -5 -19 -8 -3 -4 -12 -4 -20 -1 -8 3 -14 1 -14 -4 0 -5 -8 -9 -17 -10 -10
0 -29 -4 -43 -7 -14 -4 -36 -9 -50 -12 -14 -3 -43 -10 -65 -16 -22 -6 -47 -12
-55 -13 -8 -2 -26 -5 -40 -8 -37 -9 -61 -14 -100 -21 -19 -3 -46 -9 -60 -12
-14 -3 -41 -7 -60 -10 -19 -2 -46 -7 -60 -10 -14 -3 -38 -7 -55 -9 -16 -2 -50
-6 -75 -10 -123 -20 -286 -33 -485 -41 -236 -9 -377 -25 -383 -43 -2 -6 -9 -8
-16 -5 -8 3 -16 -2 -20 -11 -3 -9 -10 -14 -15 -11 -7 5 -48 -44 -43 -51 0 -1
-5 -14 -12 -29 -18 -34 -14 -210 8 -344 4 -19 9 -53 11 -75 3 -21 8 -41 10
-43 4 -4 29 -7 175 -18 106 -9 397 -9 510 -1 138 10 202 15 250 22 25 3 63 8
85 11 44 4 96 11 135 18 14 2 44 7 68 11 55 9 77 13 77 15 0 1 11 3 25 6 14 2
41 7 60 10 19 4 40 8 45 9 6 1 12 3 15 4 3 1 16 4 30 6 45 8 55 10 68 19 7 4
16 6 18 3 3 -3 20 -1 37 4 18 6 43 12 57 15 14 2 32 7 40 11 8 3 24 7 35 9 24
4 58 12 65 14 3 1 8 2 13 1 4 0 7 4 7 10 0 5 4 8 9 5 8 -5 44 4 91 21 8 4 19
5 24 4 4 -1 14 4 22 10 8 6 14 8 14 4 0 -4 7 -2 15 5 8 7 15 10 15 6 0 -3 16
0 35 8 19 8 35 12 35 9 0 -3 7 0 15 7 8 7 15 9 15 5 0 -4 7 -2 15 5 8 7 15 9
15 5 0 -4 6 -3 13 3 6 6 15 11 20 11 4 1 8 1 10 2 1 0 13 3 27 5 13 2 28 10
32 17 4 6 8 9 8 5 0 -6 56 10 100 29 8 3 18 5 23 5 4 -1 7 3 7 9 0 5 4 7 10 4
5 -3 20 0 32 7 13 6 28 13 33 14 6 1 21 6 35 12 14 5 30 10 35 11 6 1 20 9 33
17 12 8 22 12 22 9 0 -3 10 0 23 7 12 7 25 13 30 14 4 1 10 3 15 4 4 1 10 2
15 1 4 0 7 4 7 9 0 6 9 10 19 10 11 0 23 5 26 10 4 6 10 8 15 5 5 -3 15 1 23
9 8 8 17 12 21 9 3 -4 6 -1 6 5 0 6 7 9 15 6 8 -4 15 -1 15 5 0 6 3 10 8 9 4
-1 21 5 37 12 17 7 32 14 35 16 3 1 15 5 28 9 12 4 22 12 22 17 0 5 4 7 9 4 4
-3 17 1 27 9 10 8 27 15 37 15 9 0 17 5 17 10 0 6 9 10 19 10 11 0 26 7 35 15
8 8 24 15 35 15 11 0 24 7 29 16 5 9 11 14 13 13 7 -5 129 56 129 64 0 5 5 5
10 2 6 -3 10 -1 10 6 0 7 3 10 6 6 3 -3 23 5 44 18 21 13 41 21 44 18 3 -4 6
-1 6 5 0 7 7 12 15 12 8 0 15 5 15 12 0 6 3 9 6 5 3 -3 27 6 52 21 26 14 64
35 85 46 20 11 37 24 37 28 0 5 4 7 8 4 5 -3 20 5 33 17 13 12 25 21 26 20 8
-8 23 -1 18 7 -4 6 -3 9 2 8 8 -3 42 15 133 67 37 22 105 70 108 78 2 4 8 5
13 1 5 -3 9 0 9 5 0 6 7 11 16 11 9 0 12 5 8 12 -4 7 -3 8 4 4 6 -4 20 2 32
14 11 11 22 19 25 18 2 -2 13 5 25 14 11 10 20 15 20 13 0 -7 23 11 58 45 14
14 22 19 17 11 -5 -9 1 -7 19 4 14 10 26 21 26 26 0 5 4 8 9 6 5 -1 17 7 26
18 9 11 14 13 10 5 -4 -10 -2 -9 8 3 8 9 19 17 25 17 6 0 19 11 30 25 11 13
22 21 26 18 3 -3 6 -1 6 6 0 7 4 10 9 6 6 -3 15 4 21 15 6 11 15 18 21 15 5
-4 9 -2 9 4 0 5 8 12 18 15 9 3 35 23 56 44 22 20 42 37 45 37 4 0 5 4 3 8 -1
5 2 6 6 3 5 -3 21 5 36 19 15 13 30 26 34 27 4 2 6 6 5 10 -2 5 0 7 5 5 7 -2
12 2 64 45 15 13 43 37 64 53 20 17 50 42 66 57 15 15 28 25 28 22 0 -3 6 1
14 8 8 7 12 16 9 20 -2 5 2 8 9 8 7 0 45 30 83 65 39 36 74 65 78 65 5 0 5 5
2 10 -3 6 -1 10 5 10 6 0 21 10 33 21 12 12 16 18 8 14 -9 -5 -12 -4 -7 3 4 7
13 12 20 12 18 0 48 35 39 45 -5 4 -3 5 3 2 13 -8 187 167 177 178 -5 4 -2 5
5 1 8 -5 16 2 22 18 5 14 12 26 15 26 4 0 3 -6 -1 -12 -4 -7 13 7 38 32 24 25
43 47 41 49 -1 2 6 11 17 18 11 8 17 19 14 25 -4 6 -3 9 2 5 5 -3 21 8 34 24
14 16 35 39 48 51 12 12 22 28 22 36 0 9 3 12 6 9 8 -7 80 84 76 96 -1 4 4 6
10 5 7 -2 12 3 10 10 -1 6 2 12 8 12 5 0 15 11 22 24 7 14 18 25 23 25 6 0 12
8 14 17 1 9 21 35 42 57 21 23 41 49 45 59 3 10 10 18 16 18 6 0 8 3 5 7 -4 3
2 13 13 20 11 8 18 18 15 23 -3 4 2 10 10 14 8 3 15 10 15 16 0 5 9 19 20 30
12 12 18 26 14 32 -4 7 -3 8 4 4 6 -3 16 3 22 15 10 17 9 20 -2 14 -8 -4 -8
-2 2 7 21 18 72 88 65 88 -3 0 3 9 13 20 10 11 25 33 33 48 8 15 18 30 24 34
5 4 6 8 2 8 -4 0 1 10 12 22 11 11 18 25 15 29 -2 4 4 12 13 18 10 6 14 11 8
11 -6 0 -6 3 0 8 18 12 48 65 34 57 -9 -4 -9 -2 1 7 8 7 26 33 39 58 13 25 30
52 37 61 8 8 14 23 14 32 0 9 5 19 11 22 15 10 -19 45 -43 45 -11 0 -16 5 -13
10 6 9 -8 14 -28 11 -4 -1 -10 6 -13 14 -4 8 -10 15 -15 15 -5 0 -27 11 -49
25 -22 14 -40 22 -40 18 0 -5 -5 0 -11 9 -5 10 -15 18 -20 18 -6 0 -17 7 -26
15 -8 8 -19 13 -24 10 -5 -4 -9 -1 -9 4 0 6 -7 11 -15 11 -8 0 -15 5 -15 10 0
6 -5 10 -12 10 -6 0 -27 12 -46 27 -20 15 -32 20 -28 12 4 -8 1 -6 -7 4 -8 9
-19 17 -26 17 -6 0 -11 5 -11 11 0 5 -5 7 -10 4 -5 -3 -10 -1 -10 5 0 6 -4 8
-10 5 -6 -3 -10 -1 -10 4 0 6 -5 11 -10 11 -6 0 -16 5 -23 10 -31 26 -88 59
-82 48 4 -7 -1 -4 -9 6 -9 11 -16 16 -16 12 0 -4 -7 0 -16 8 -8 9 -20 13 -26
10 -6 -4 -8 -3 -5 3 3 5 -11 18 -31 28 -20 10 -52 30 -71 44 -19 13 -31 18
-27 10 4 -8 1 -6 -6 3 -8 9 -20 18 -28 20 -7 2 -22 11 -32 20 -10 10 -25 18
-33 18 -8 0 -15 5 -15 10 0 6 -7 10 -15 10 -8 0 -15 4 -15 9 0 5 -7 12 -16 15
-10 4 -13 2 -8 -7 4 -6 -6 0 -23 16 -16 15 -33 27 -38 27 -5 0 -17 8 -28 18
-15 12 -19 13 -13 2 4 -9 2 -8 -7 3 -8 9 -19 17 -26 17 -6 0 -11 5 -11 12 0 6
-3 9 -6 5 -4 -3 -13 1 -21 9 -8 8 -19 11 -25 8 -7 -4 -8 -2 -4 4 4 7 2 13 -3
13 -6 1 -15 2 -19 3 -5 0 -16 9 -26 19 -10 9 -22 15 -27 12 -5 -4 -9 -1 -9 4
0 6 -5 11 -11 11 -6 0 -17 7 -26 15 -8 8 -19 13 -24 10 -5 -4 -9 -2 -9 4 0 11
-80 57 -92 53 -5 -1 -8 2 -8 7 0 5 -12 16 -26 26 -18 12 -24 13 -19 4 3 -8 0
-6 -8 3 -8 10 -17 15 -20 11 -4 -3 -9 2 -13 11 -3 9 -10 13 -15 10 -5 -3 -9 0
-9 6 0 6 -4 8 -10 5 -5 -3 -10 -2 -10 3 0 8 -50 36 -59 32 -2 -1 -7 2 -10 7
-14 19 -54 47 -47 33 5 -9 2 -8 -7 2 -8 10 -17 15 -20 11 -4 -3 -7 -1 -7 5 0
7 -6 12 -14 12 -8 0 -17 7 -20 16 -3 8 -10 13 -15 10 -5 -3 -14 1 -21 9 -7 8
-16 13 -20 10 -4 -3 -10 2 -14 10 -3 8 -12 15 -19 15 -8 0 -20 7 -27 15 -7 8
-16 12 -21 9 -5 -3 -9 0 -9 5 0 6 -7 11 -15 11 -8 0 -15 5 -15 10 0 6 -5 10
-11 10 -5 0 -26 11 -46 25 -20 13 -41 21 -46 18 -6 -3 -7 -1 -3 5 6 11 0 14
-20 11 -4 0 -10 3 -13 8 -9 13 -71 55 -71 48 0 -3 -10 3 -22 15 -12 11 -30 20
-40 20 -11 0 -17 4 -14 8 3 4 -12 17 -32 27 -20 11 -48 27 -61 37 -13 10 -27
15 -32 12 -5 -3 -9 0 -9 6 0 6 -8 14 -17 17 -10 4 -27 15 -37 25 -11 10 -28
18 -37 18 -10 0 -19 3 -21 8 -4 9 -88 64 -88 58 0 -3 -12 6 -26 19 -15 14 -30
22 -35 19 -5 -3 -9 -1 -9 4 0 5 -12 15 -27 23 -16 8 -47 26 -69 42 -23 15 -47
27 -53 27 -6 0 -11 5 -11 11 0 5 -4 7 -10 4 -5 -3 -10 -1 -10 6 0 7 -3 10 -6
6 -3 -3 -14 3 -25 14 -11 11 -24 17 -29 14 -6 -4 -10 -2 -10 4 0 6 -14 18 -32
27 -18 9 -38 23 -46 30 -7 8 -18 12 -23 9 -5 -4 -9 -2 -9 4 0 13 -55 42 -64
34 -3 -4 -6 -1 -6 5 0 7 -8 12 -18 12 -10 0 -23 5 -28 10 -6 6 -25 13 -42 15
-18 3 -45 7 -62 9 -16 3 -32 1 -35 -4 -3 -4 -15 -6 -27 -2 -14 3 -19 1 -14 -6
5 -8 2 -10 -8 -6 -9 3 -16 1 -16 -6 0 -6 -4 -8 -10 -5 -5 3 -10 1 -10 -5 0 -6
-4 -9 -9 -6 -5 4 -11 3 -13 -1 -1 -5 -20 -23 -41 -40 -21 -18 -35 -33 -32 -33
4 0 -8 -12 -25 -26 -17 -15 -29 -28 -27 -31 3 -2 -9 -18 -26 -36 -16 -18 -40
-48 -53 -69 -13 -20 -35 -48 -49 -62 -14 -14 -24 -26 -22 -26 2 0 -13 -19 -34
-41 -21 -23 -36 -46 -32 -52 3 -6 1 -7 -4 -4 -6 4 -17 -1 -24 -10 -12 -14 -12
-16 1 -8 8 4 5 -2 -7 -14 -12 -11 -27 -21 -32 -21 -5 0 -12 -9 -16 -19 -3 -11
-12 -22 -20 -25 -8 -3 -15 -12 -15 -21 0 -8 -3 -14 -7 -13 -13 3 -93 -76 -93
-91 0 -8 -3 -12 -6 -8 -3 3 -28 -16 -55 -43 -27 -27 -49 -46 -49 -43 0 3 -9
-2 -20 -12 -11 -10 -20 -25 -20 -33 0 -9 -3 -12 -6 -9 -7 7 -103 -68 -117 -91
-5 -7 -12 -10 -18 -7 -5 4 -9 2 -9 -4 0 -5 -13 -18 -29 -27 -17 -10 -27 -22
-24 -27 3 -6 2 -7 -4 -4 -9 6 -75 -39 -162 -110 -19 -15 -31 -21 -26 -13 8 15
-33 -15 -46 -33 -3 -5 -9 -8 -13 -8 -20 3 -26 0 -20 -11 4 -6 3 -8 -4 -4 -6 3
-18 -2 -28 -11 -10 -10 -20 -17 -23 -17 -10 2 -51 -19 -51 -26 0 -4 -14 -10
-31 -14 -17 -3 -28 -10 -24 -16 3 -5 0 -7 -8 -4 -8 3 -17 -2 -20 -10 -4 -9
-12 -13 -19 -11 -8 3 -23 -3 -35 -14 -11 -11 -24 -17 -27 -14 -3 4 -13 -2 -22
-13 -8 -10 -13 -14 -10 -7 3 6 -13 2 -36 -10 -24 -11 -46 -20 -50 -19 -5 1 -8
-2 -8 -6 0 -4 -10 -8 -22 -9 -11 -1 -25 -8 -29 -15 -5 -7 -9 -9 -9 -4 0 5 -9
1 -20 -9 -11 -10 -23 -15 -26 -12 -4 3 -16 1 -28 -5 -11 -7 -30 -13 -41 -15
-11 -2 -21 -7 -23 -12 -2 -5 -12 -6 -24 -3 -13 3 -19 1 -15 -5 4 -6 1 -10 -6
-10 -23 2 -87 -15 -87 -23 0 -5 -8 -9 -17 -9 -39 -1 -53 -5 -53 -13 0 -5 -4
-7 -9 -4 -5 4 -22 1 -38 -5 -15 -6 -39 -13 -53 -14 -14 -2 -25 -4 -25 -5 0 -2
-29 -9 -65 -15 -14 -2 -36 -7 -50 -10 -14 -4 -36 -8 -50 -10 -14 -2 -36 -6
-50 -8 -14 -3 -50 -8 -80 -11 -30 -4 -66 -9 -80 -11 -32 -5 -140 -16 -210 -20
-30 -2 -104 -7 -165 -11 -144 -9 -633 -9 -760 1 -151 11 -185 14 -240 20 -27
3 -70 8 -95 11 -25 2 -61 7 -80 10 -19 2 -48 6 -65 8 -16 2 -41 6 -55 9 -80
16 -108 21 -130 23 -14 1 -25 3 -25 4 0 3 -43 10 -72 12 -13 1 -23 5 -23 9 0
4 -8 8 -17 7 -10 0 -29 3 -43 7 -14 4 -35 8 -47 9 -13 0 -23 4 -23 7 0 3 -6 6
-12 7 -14 1 -96 20 -113 26 -5 1 -17 6 -25 9 -15 5 -69 20 -82 21 -3 1 -10 4
-14 8 -4 5 -17 8 -29 8 -11 0 -26 5 -33 12 -7 7 -12 9 -12 5 0 -6 -61 13 -105
35 -12 5 -27 10 -35 12 -8 2 -28 9 -45 15 -16 7 -37 14 -45 16 -8 2 -17 4 -20
5 -3 1 -8 2 -12 1 -5 0 -8 3 -8 9 0 5 -7 10 -15 10 -9 0 -28 8 -42 18 -21 13
-25 14 -18 2 6 -11 3 -10 -12 3 -11 9 -23 14 -26 10 -4 -3 -7 -1 -7 6 0 8 -6
11 -16 7 -9 -4 -13 -2 -8 5 4 7 1 10 -7 7 -8 -3 -20 1 -27 9 -8 7 -18 11 -23
8 -5 -4 -9 -1 -9 4 0 6 -5 11 -11 11 -5 0 -36 12 -67 26 -31 14 -59 26 -62 27
-3 0 -24 11 -47 24 -24 13 -43 20 -43 16 0 -4 -4 -3 -8 2 -4 6 -65 39 -137 75
-71 35 -131 68 -133 72 -2 4 -10 4 -19 1 -11 -4 -14 -2 -9 5 6 11 -5 17 -26
13 -5 0 -8 3 -8 8 0 5 -11 12 -25 15 -14 4 -25 11 -25 17 0 6 -5 7 -10 4 -6
-3 -10 -2 -10 2 0 5 -9 14 -21 21 -17 11 -20 11 -14 0 5 -7 -2 -3 -14 10 -12
12 -26 20 -32 17 -5 -4 -9 -1 -9 5 0 6 -4 8 -10 5 -5 -3 -10 -1 -10 5 0 6 -8
14 -17 17 -10 4 -34 18 -52 32 -19 14 -32 19 -27 11 4 -8 0 -6 -8 4 -9 11 -16
16 -16 10 0 -5 -4 -4 -8 2 -10 14 -152 105 -152 97 0 -4 -7 2 -15 13 -8 10
-15 16 -15 12 0 -4 -12 4 -26 17 -15 14 -31 25 -35 25 -5 0 -17 7 -26 15 -47
41 -86 68 -79 55 4 -9 2 -8 -7 2 -8 10 -17 15 -20 11 -4 -3 -7 -1 -7 5 0 11
-102 92 -116 92 -4 0 -15 10 -25 22 -11 11 -19 18 -19 14 0 -4 -12 6 -26 21
-15 15 -23 21 -18 13 6 -10 3 -9 -8 2 -9 10 -21 18 -28 18 -6 0 -8 4 -5 10 3
6 2 10 -3 10 -8 0 -32 19 -89 70 -68 61 -96 83 -89 70 5 -8 -6 2 -24 23 -17
20 -35 35 -40 32 -5 -3 -12 0 -16 6 -5 8 -3 9 7 4 8 -4 -11 15 -41 43 -113
106 -236 232 -232 237 3 3 -2 5 -11 5 -9 0 -19 5 -23 12 -5 7 -3 8 7 3 12 -8
12 -6 0 8 -7 9 -17 14 -22 11 -5 -3 -8 0 -7 7 2 7 -4 13 -12 14 -8 0 -15 6
-15 13 0 8 -8 20 -18 27 -10 7 -19 17 -20 22 -1 4 -5 7 -9 5 -5 -1 -8 2 -8 8
0 5 -10 19 -23 32 -13 13 -26 31 -30 41 -4 10 -12 15 -17 12 -6 -4 -9 -3 -8 2
4 11 -73 113 -84 113 -4 0 -8 7 -8 15 0 8 -7 15 -16 15 -8 0 -13 4 -10 9 3 5
-7 23 -23 40 -15 16 -26 33 -23 35 3 3 -3 8 -12 12 -9 3 -16 12 -16 20 0 8 -4
14 -10 14 -5 0 -10 7 -10 15 0 7 -8 19 -17 24 -10 6 -13 11 -8 11 6 0 5 3 -1
8 -6 4 -30 37 -53 75 -24 37 -48 67 -54 67 -5 0 -7 3 -4 7 4 3 1 13 -5 21 -13
15 -27 39 -53 90 -10 17 -22 32 -27 32 -5 0 -6 5 -3 10 3 6 1 10 -4 10 -6 0
-11 7 -11 15 0 8 -5 15 -11 15 -5 0 -8 4 -5 9 3 5 -1 14 -9 21 -8 7 -15 18
-15 25 0 7 -7 18 -15 25 -9 7 -13 15 -10 18 2 3 -3 11 -13 19 -9 8 -10 11 -3
7 9 -5 6 5 -7 23 -12 17 -22 36 -22 42 0 6 -5 11 -11 11 -5 0 -7 4 -4 10 3 5
1 10 -6 10 -7 0 -10 3 -6 6 6 6 -41 103 -64 131 -9 11 -10 14 -2 9 14 -7 -16
54 -30 65 -5 3 -8 8 -6 10 4 6 -24 79 -31 79 -3 0 -6 10 -7 22 -1 11 -8 25
-15 29 -7 5 -9 9 -4 9 5 0 3 7 -4 15 -7 8 -9 15 -4 15 4 0 3 5 -4 12 -7 7 -12
20 -12 30 0 10 -5 18 -11 18 -5 0 -8 4 -5 8 3 5 -2 21 -10 36 -7 16 -14 35
-14 42 0 8 -4 14 -10 14 -5 0 -7 7 -4 15 4 8 1 15 -6 15 -6 0 -9 4 -5 9 3 5 1
20 -4 33 -17 42 -24 63 -28 82 -2 11 -8 25 -14 33 -6 7 -9 13 -5 13 3 0 0 15
-8 34 -8 19 -12 37 -8 40 3 3 0 6 -7 6 -7 0 -10 4 -7 8 3 5 -2 31 -10 58 -15
47 -22 75 -28 101 -1 7 -5 15 -8 19 -4 3 -4 12 -1 20 3 8 0 14 -6 14 -6 0 -8
7 -5 15 3 8 2 20 -2 27 -8 13 -14 41 -15 70 0 10 -5 20 -10 23 -5 4 -7 11 -4
16 4 5 3 14 -1 21 -4 7 -9 21 -10 32 -1 12 -5 33 -8 49 -13 58 -23 112 -31
169 -2 18 -7 44 -10 58 -7 33 -16 97 -20 140 -2 19 -6 53 -9 75 -24 176 -38
408 -38 645 0 204 12 460 27 560 3 25 8 61 10 80 2 19 7 53 10 75 3 22 8 54
10 70 9 61 15 96 20 123 4 15 8 38 10 52 3 14 9 48 15 75 6 28 12 59 15 70 2
11 4 20 6 20 1 0 3 9 5 20 1 11 5 30 8 43 3 12 9 32 12 45 8 33 10 40 19 60 4
10 5 20 2 23 -3 3 1 17 8 31 8 15 11 31 8 36 -3 5 -1 12 4 16 4 3 19 44 32 91
13 47 27 90 31 95 9 14 34 98 32 108 -1 4 2 7 8 7 6 0 9 3 9 8 -1 4 0 10 1 15
1 4 3 10 5 15 1 4 8 21 15 37 7 17 12 38 12 48 0 9 3 15 8 12 8 -5 26 51 22
68 -1 4 2 7 7 7 9 0 24 38 22 54 -1 4 3 14 9 22 20 23 48 84 36 77 -6 -3 -2 3
8 15 11 12 15 22 10 22 -5 0 -4 4 2 8 11 7 56 97 54 107 0 3 6 13 15 21 8 9
13 20 10 25 -4 5 -1 9 4 9 6 0 11 7 11 15 0 8 5 15 11 15 5 0 8 4 4 9 -3 5 0
15 7 23 15 15 51 84 49 92 0 3 8 15 19 26 12 12 18 26 14 32 -4 7 -3 8 4 4 11
-6 14 0 11 21 0 3 6 10 15 15 9 5 14 13 11 19 -4 5 -1 9 4 9 6 0 11 7 11 15 0
8 5 15 10 15 6 0 10 5 10 11 0 5 18 36 40 68 21 32 36 62 32 66 -4 5 -2 5 4 2
11 -6 26 14 28 36 1 4 6 11 12 15 6 4 14 17 18 30 4 12 11 20 16 17 5 -3 11 3
15 14 3 10 16 31 30 47 13 15 21 32 18 37 -3 6 -1 7 4 4 10 -7 28 20 25 35 -1
5 4 7 11 5 6 -1 11 4 10 11 -2 6 2 12 8 12 5 0 7 5 4 10 -3 6 1 10 10 10 9 0
13 5 10 10 -3 6 -1 10 4 10 6 0 11 7 11 16 0 8 5 12 10 9 6 -3 10 -3 10 2 0 7
23 37 68 88 10 11 40 47 67 80 28 33 58 66 68 73 9 7 15 18 12 23 -4 5 2 9 11
9 10 0 15 2 12 5 -3 3 21 32 52 65 32 32 56 61 52 64 -3 3 0 6 6 6 15 0 102
87 102 102 0 6 3 9 6 6 8 -9 62 45 56 56 -3 5 0 6 5 3 6 -4 27 12 48 36 21 23
34 35 30 27 -5 -8 16 8 45 35 29 28 66 62 81 76 15 15 35 29 44 33 9 3 13 11
10 16 -4 6 -3 10 2 9 18 -3 36 1 30 7 -4 4 13 19 36 35 23 15 56 41 74 57 17
16 38 32 47 35 9 4 16 11 16 17 0 5 6 10 13 10 7 0 30 15 50 34 20 18 39 31
41 28 3 -3 8 3 12 12 3 9 11 16 18 16 6 0 24 11 39 25 15 14 27 22 27 18 0 -4
10 3 21 17 11 14 17 18 13 10 -4 -8 4 -5 18 8 13 12 29 22 34 22 5 0 16 9 24
19 7 11 17 18 22 15 4 -3 19 5 32 18 13 13 30 24 37 26 8 2 19 10 25 17 6 8
14 12 17 8 4 -3 7 -1 7 6 0 7 4 10 9 7 5 -3 14 1 21 9 7 8 18 15 25 15 7 0 25
12 40 28 16 15 25 20 20 12 -6 -11 -3 -10 12 3 11 9 24 17 29 17 6 0 21 10 34
23 14 12 25 20 25 18 0 -7 75 33 75 41 0 5 4 7 10 3 5 -3 18 3 29 14 11 11 22
17 25 14 3 -3 12 2 21 11 9 9 23 16 31 16 8 0 14 5 14 11 0 5 4 8 9 4 5 -3 15
0 23 7 7 7 20 14 28 16 8 2 17 8 18 13 2 5 8 7 13 3 5 -3 9 -1 9 5 0 6 7 7 17
4 12 -5 14 -3 8 7 -6 9 -4 11 5 5 7 -4 16 -2 21 6 8 14 12 15 45 18 9 0 12 6
8 13 -4 6 -3 8 4 4 11 -7 62 13 62 24 0 4 6 7 13 7 6 0 37 11 67 25 68 31 91
40 109 44 8 1 17 8 21 14 4 7 10 11 14 10 14 -2 86 24 86 31 0 5 6 6 13 3 8
-3 20 2 27 10 7 9 16 14 20 11 4 -3 25 3 46 12 22 9 42 16 47 15 4 -1 7 2 7 8
0 5 7 7 15 4 8 -4 15 -1 15 5 0 6 7 8 15 5 8 -4 15 -1 15 6 0 6 5 8 10 5 6 -4
18 -1 27 7 9 7 18 12 20 11 1 -2 4 -3 6 -2 1 0 13 3 27 5 14 3 27 9 28 14 2 6
8 8 13 4 5 -3 15 -2 22 3 6 4 19 9 27 11 19 4 43 10 50 12 3 1 9 2 14 1 4 -1
13 2 20 7 6 5 36 15 66 22 30 7 59 15 65 18 5 3 16 7 25 8 16 3 52 11 60 14 3
1 9 2 14 1 4 -1 13 2 20 7 6 4 18 8 26 7 8 -1 26 3 40 8 26 9 72 18 103 20 9
1 17 4 17 7 0 3 8 6 18 6 9 1 33 4 52 8 19 4 46 9 60 11 14 2 39 6 55 10 29 6
70 13 125 19 14 2 25 4 25 6 0 1 16 4 35 5 19 2 53 5 75 8 22 3 65 8 95 12 30
3 75 8 100 11 25 3 77 7 115 10 39 2 106 7 150 10 100 8 692 8 800 0 89 -7
148 -12 245 -21 118 -12 135 -14 235 -29 17 -2 50 -7 75 -10 25 -4 59 -9 75
-13 17 -3 44 -7 60 -9 17 -1 30 -3 30 -4 0 -3 55 -11 83 -13 12 0 22 -4 22 -7
0 -4 6 -7 13 -7 18 -1 82 -11 85 -14 2 -2 6 -3 52 -12 19 -4 46 -10 60 -13 14
-3 32 -7 40 -9 8 -1 22 -5 30 -8 15 -6 60 -17 90 -21 9 -1 21 -5 28 -10 6 -4
16 -5 21 -1 5 3 13 0 16 -6 4 -5 13 -8 21 -5 8 3 14 1 14 -5 0 -6 7 -9 15 -6
8 4 17 2 20 -4 4 -5 10 -7 15 -4 5 3 12 0 15 -6 4 -5 13 -8 21 -5 7 3 16 1 19
-5 4 -5 10 -7 15 -4 5 3 11 1 14 -4 5 -7 54 -21 88 -25 3 -1 10 -4 14 -8 4 -5
17 -8 29 -8 11 0 26 -5 33 -12 7 -7 12 -8 12 -4 0 5 7 3 15 -4 8 -7 15 -9 15
-5 0 4 7 2 15 -5 8 -6 19 -9 25 -5 5 3 10 1 10 -5 0 -7 7 -10 15 -6 8 3 15 2
15 -2 0 -8 65 -32 90 -34 8 -1 17 -5 20 -9 3 -5 15 -10 25 -12 11 -2 31 -9 45
-14 14 -6 42 -18 63 -26 20 -9 37 -13 37 -9 0 4 4 3 8 -3 7 -11 62 -34 100
-42 12 -3 22 -10 22 -15 0 -6 7 -8 15 -4 8 3 15 2 15 -3 0 -5 10 -12 23 -16
12 -4 24 -8 27 -9 3 -1 15 -7 26 -14 12 -6 24 -8 28 -5 3 3 6 1 6 -5 0 -7 7
-12 15 -12 9 0 27 -7 40 -16 14 -9 25 -13 25 -9 0 5 9 0 20 -10 11 -10 20 -14
20 -10 0 4 10 0 22 -11 13 -12 18 -13 13 -4 -6 12 -4 11 11 -2 10 -9 26 -18
34 -20 8 -2 17 -5 20 -8 8 -8 134 -70 145 -72 6 0 16 -8 23 -17 10 -12 12 -12
6 -1 -6 11 -2 10 13 -2 11 -10 22 -18 26 -18 3 0 23 -11 43 -25 20 -14 40 -22
45 -19 5 3 9 0 9 -5 0 -6 7 -11 15 -11 8 0 15 -5 15 -11 0 -5 4 -8 9 -4 5 3
16 -2 24 -10 9 -8 20 -15 26 -15 6 0 11 -4 11 -9 0 -5 7 -12 16 -15 10 -4 13
-2 9 7 -4 6 -1 5 7 -4 7 -9 23 -19 36 -23 12 -4 22 -12 22 -17 0 -6 5 -7 10
-4 6 3 10 1 10 -4 0 -6 6 -11 14 -11 7 0 19 -7 26 -15 7 -9 15 -13 18 -10 3 2
11 -3 19 -13 10 -11 12 -12 8 -2 -6 13 -5 13 7 0 15 -18 68 -53 68 -45 0 3 8
-3 18 -13 11 -11 33 -25 50 -33 18 -8 32 -17 32 -21 0 -5 6 -8 14 -8 8 0 16
-4 18 -9 2 -5 10 -11 18 -13 8 -2 21 -11 28 -20 7 -10 19 -18 26 -18 7 0 22
-9 33 -20 12 -11 27 -21 34 -22 13 -3 40 -22 64 -45 8 -7 16 -13 20 -13 4 0
13 -6 20 -12 25 -23 96 -73 101 -70 4 2 11 -4 68 -55 14 -13 32 -23 41 -23 9
0 13 -4 10 -10 -3 -5 -2 -10 4 -10 5 0 21 -10 35 -22 43 -40 66 -58 66 -52 0
3 11 -7 25 -22 14 -15 25 -24 25 -21 0 4 14 -7 30 -25 17 -17 30 -27 30 -23 0
4 11 -5 25 -21 14 -16 25 -26 25 -23 0 4 23 -15 52 -42 28 -26 55 -46 60 -43
5 3 7 0 6 -8 -2 -7 3 -12 10 -10 8 1 11 -2 8 -6 -3 -5 4 -18 17 -28 21 -19 21
-19 7 1 -14 19 -14 19 3 6 9 -7 17 -20 17 -29 0 -8 3 -13 6 -10 3 3 20 -9 38
-28 18 -19 39 -34 46 -34 7 0 10 -3 7 -6 -7 -7 81 -94 95 -94 4 0 8 -4 8 -8 0
-15 76 -92 90 -92 7 0 10 -3 7 -7 -4 -3 16 -28 43 -55 27 -27 50 -51 50 -53 0
-3 2 -4 5 -2 3 1 14 -13 25 -30 11 -18 24 -33 29 -33 5 0 13 -9 16 -20 4 -11
11 -18 16 -15 5 4 9 0 9 -6 0 -7 17 -29 38 -47 20 -19 28 -29 17 -21 -11 7 -4
-5 16 -26 20 -22 45 -51 55 -64 11 -13 28 -32 38 -42 11 -11 16 -19 11 -19 -4
0 4 -11 19 -25 15 -14 25 -25 22 -25 -6 0 18 -32 50 -66 12 -13 19 -25 17 -28
-3 -3 2 -8 11 -12 9 -3 16 -12 16 -20 0 -8 5 -14 10 -14 6 0 10 -7 10 -15 0
-9 7 -18 15 -21 8 -4 12 -10 9 -15 -3 -5 -1 -9 4 -9 5 0 14 -11 20 -25 11 -23
9 -27 -13 -35 -14 -5 -25 -15 -25 -21 0 -7 -3 -10 -6 -6 -9 8 -64 -21 -64 -33
0 -6 -3 -10 -7 -9 -16 2 -53 -14 -53 -22 0 -5 -7 -9 -15 -9 -8 0 -15 -5 -15
-12 0 -6 -3 -8 -7 -5 -3 4 -12 -1 -20 -11 -9 -10 -12 -11 -7 -2 6 11 2 10 -13
-2 -11 -10 -25 -18 -31 -18 -6 0 -24 -12 -41 -26 -17 -14 -31 -22 -31 -17 0 4
-5 0 -11 -9 -5 -10 -17 -18 -25 -18 -9 0 -30 -10 -47 -22 -18 -13 -35 -23 -39
-23 -4 0 -18 -9 -30 -20 -13 -10 -24 -17 -25 -15 -1 3 -11 -3 -23 -12 -11 -10
-20 -16 -20 -13 0 3 -18 -6 -40 -20 -22 -14 -44 -25 -50 -25 -5 0 -10 -4 -10
-10 0 -5 -7 -10 -15 -10 -8 0 -15 -5 -15 -12 0 -6 -3 -9 -6 -5 -3 3 -23 -4
-43 -16 -20 -13 -53 -31 -73 -42 -20 -10 -34 -23 -31 -29 4 -5 -1 -7 -10 -3
-9 3 -19 2 -22 -3 -3 -5 -21 -17 -40 -26 -19 -9 -35 -21 -35 -26 0 -5 -4 -6
-10 -3 -5 3 -10 1 -10 -5 0 -6 -4 -8 -10 -5 -5 3 -10 1 -10 -4 0 -6 -7 -11
-15 -11 -9 0 -18 -7 -21 -15 -4 -8 -10 -13 -15 -10 -4 3 -27 -8 -50 -25 -23
-16 -48 -30 -54 -30 -7 0 -16 -7 -19 -16 -4 -9 -9 -14 -13 -10 -4 3 -18 -4
-31 -16 -14 -13 -21 -16 -17 -8 8 13 7 13 -11 0 -10 -8 -25 -22 -32 -30 -8 -9
-11 -10 -7 -2 8 14 -75 -35 -87 -52 -3 -5 -13 -11 -22 -12 -8 -1 -29 -12 -45
-23 -16 -12 -32 -21 -37 -21 -4 0 -21 -10 -38 -23 -17 -13 -39 -26 -48 -30
-10 -3 -18 -11 -18 -17 0 -6 -4 -8 -10 -5 -5 3 -10 1 -10 -4 0 -6 -3 -10 -7
-9 -9 3 -65 -32 -75 -47 -5 -6 -8 -6 -8 0 0 6 -6 3 -13 -6 -12 -16 -18 -19
-38 -19 -5 0 -7 -5 -3 -12 4 -6 3 -8 -4 -4 -6 3 -17 0 -25 -8 -8 -8 -17 -12
-21 -9 -3 4 -6 1 -6 -5 0 -7 -7 -12 -15 -12 -9 0 -18 -7 -21 -15 -4 -8 -10
-13 -15 -10 -4 3 -17 -2 -29 -12 -11 -10 -24 -17 -28 -16 -4 1 -15 -6 -26 -15
-10 -9 -21 -16 -25 -14 -3 2 -24 -4 -46 -12 -81 -29 -199 -41 -235 -24 -13 6
-66 19 -80 20 -3 0 -18 10 -34 21 -19 13 -27 16 -22 6 6 -10 4 -10 -6 1 -20
24 -74 60 -82 55 -3 -3 -4 -2 -1 1 6 9 -47 50 -60 46 -5 -2 -7 0 -3 4 9 8
-126 144 -143 144 -7 0 -10 3 -6 6 7 8 -54 60 -66 56 -5 -1 -6 2 -2 7 3 6 -7
17 -22 25 -15 8 -24 15 -20 16 9 0 -58 60 -68 60 -4 0 -16 11 -27 25 -11 14
-23 23 -28 20 -4 -3 -10 2 -14 10 -3 8 -13 15 -21 15 -9 0 -14 4 -10 9 3 5 -4
12 -15 16 -11 3 -20 11 -20 17 0 6 -3 8 -6 5 -4 -3 -15 5 -26 18 -11 14 -24
25 -29 25 -5 0 -15 4 -22 10 -56 46 -77 61 -77 56 0 -2 -15 8 -32 25 -18 16
-36 29 -41 29 -5 0 -32 17 -60 37 -28 21 -47 31 -42 23 4 -8 -5 -3 -22 13 -16
15 -34 27 -40 27 -6 0 -16 7 -23 15 -7 8 -16 12 -21 9 -5 -3 -9 0 -9 5 0 6 -7
11 -15 11 -8 0 -15 5 -15 11 0 6 -7 8 -16 5 -8 -3 -12 -2 -9 4 6 9 -8 14 -27
11 -5 0 -8 4 -8 11 0 6 -3 9 -6 5 -4 -3 -13 1 -21 9 -8 8 -18 12 -23 9 -4 -3
-11 2 -14 11 -3 8 -10 12 -16 9 -5 -3 -10 -1 -10 5 0 7 -6 10 -14 7 -8 -3 -17
1 -20 9 -3 8 -9 13 -13 12 -4 -1 -23 6 -40 15 -18 10 -33 14 -33 10 0 -5 -4
-3 -8 2 -11 16 -115 67 -106 53 4 -8 0 -7 -12 3 -10 9 -35 21 -54 29 -19 7
-50 19 -68 27 -18 8 -42 16 -53 18 -12 2 -26 9 -33 14 -6 5 -23 12 -38 15 -14
2 -35 9 -47 15 -11 6 -24 10 -28 9 -4 -1 -26 6 -47 15 -22 10 -41 15 -44 12
-3 -3 -11 0 -19 6 -7 6 -13 8 -13 4 0 -4 -6 -3 -12 3 -7 5 -26 12 -43 15 -16
3 -60 15 -97 25 -36 11 -69 18 -72 15 -3 -3 -12 0 -20 6 -8 7 -20 10 -25 7 -5
-4 -12 -2 -15 3 -4 5 -17 8 -31 6 -14 -1 -25 1 -25 4 0 4 -8 7 -17 8 -10 1
-31 4 -48 8 -16 4 -43 8 -60 10 -16 2 -46 6 -65 10 -93 15 -171 25 -230 30
-19 2 -73 7 -120 11 -168 15 -677 8 -825 -11 -16 -2 -57 -6 -90 -10 -33 -3
-67 -8 -75 -10 -8 -3 -35 -7 -60 -10 -25 -2 -56 -7 -70 -10 -14 -3 -38 -8 -55
-11 -43 -8 -60 -12 -60 -14 0 -1 -20 -3 -44 -6 -24 -2 -50 -9 -58 -16 -7 -6
-16 -8 -19 -5 -3 3 -20 1 -37 -5 -18 -5 -45 -12 -62 -15 -16 -2 -31 -8 -33
-13 -2 -4 -12 -6 -22 -3 -11 3 -20 0 -20 -6 0 -5 -6 -8 -14 -5 -8 3 -17 1 -20
-5 -4 -6 -13 -8 -21 -4 -8 3 -15 0 -15 -7 0 -7 -6 -10 -14 -7 -8 3 -17 3 -20
-1 -4 -3 -17 -7 -29 -9 -12 -2 -23 -8 -25 -13 -2 -5 -10 -6 -18 -3 -8 3 -14 0
-14 -7 0 -6 -4 -8 -10 -5 -5 3 -16 3 -22 -2 -7 -4 -15 -8 -18 -8 -11 -2 -87
-29 -120 -43 -19 -9 -38 -16 -42 -16 -3 -1 -10 -4 -14 -8 -4 -5 -16 -8 -26 -8
-10 0 -18 -5 -18 -11 0 -5 -4 -8 -9 -4 -5 3 -16 -1 -24 -9 -8 -8 -17 -13 -19
-11 -3 3 -37 -11 -77 -30 -39 -19 -76 -35 -81 -35 -6 0 -10 -5 -10 -12 0 -6
-3 -9 -6 -5 -3 3 -23 -5 -44 -18 -21 -13 -41 -21 -44 -18 -3 4 -6 0 -6 -7 0
-7 -3 -10 -7 -7 -3 4 -12 -1 -20 -11 -9 -10 -12 -11 -7 -2 6 11 2 10 -13 -2
-11 -10 -25 -18 -32 -18 -6 0 -14 -7 -17 -15 -4 -8 -10 -13 -14 -10 -5 3 -15
-1 -23 -9 -8 -8 -17 -12 -21 -9 -3 3 -8 -2 -12 -11 -3 -9 -10 -13 -15 -11 -4
3 -17 -3 -29 -15 -11 -11 -22 -20 -25 -20 -3 0 -10 0 -16 0 -5 0 -7 -5 -4 -11
4 -6 0 -9 -8 -7 -9 2 -23 -6 -32 -17 -9 -11 -14 -13 -10 -5 4 8 -1 6 -9 -4 -9
-11 -16 -16 -16 -10 0 5 -10 -2 -21 -16 -11 -14 -18 -18 -14 -10 4 8 -1 6 -9
-4 -9 -11 -16 -16 -16 -10 -1 5 -9 -1 -19 -13 -10 -12 -21 -19 -25 -16 -3 4
-6 1 -6 -5 0 -7 -6 -12 -12 -12 -7 0 -28 -14 -45 -31 -18 -16 -33 -26 -33 -22
-1 4 -12 -5 -26 -22 -15 -16 -23 -23 -19 -15 4 10 1 9 -8 -2 -8 -10 -19 -18
-26 -18 -6 0 -11 -6 -11 -14 0 -8 -5 -18 -12 -22 -7 -5 -9 -2 -4 7 4 8 -2 3
-13 -10 -12 -13 -21 -20 -21 -16 0 5 -8 -1 -17 -12 -10 -11 -28 -25 -41 -32
-12 -7 -20 -17 -16 -23 4 -6 3 -8 -4 -4 -6 3 -15 -2 -21 -11 -6 -10 -11 -14
-11 -10 0 4 -11 -3 -24 -15 -13 -13 -21 -27 -18 -32 3 -5 0 -6 -6 -2 -6 3 -17
-2 -24 -12 -7 -11 -16 -20 -20 -21 -5 0 -8 -4 -7 -7 0 -4 -10 -12 -23 -19 -13
-6 -22 -17 -21 -23 2 -7 -3 -11 -10 -9 -6 1 -11 -4 -9 -11 1 -8 -2 -11 -8 -7
-6 3 -14 -4 -19 -17 -6 -13 -10 -20 -10 -16 -1 5 -12 -2 -26 -14 -13 -11 -22
-26 -18 -31 3 -6 1 -7 -6 -3 -7 4 -15 -2 -20 -16 -6 -13 -10 -20 -10 -16 -1 5
-12 -2 -26 -14 -13 -11 -22 -26 -18 -31 3 -6 1 -7 -5 -3 -8 4 -16 -3 -22 -18
-5 -14 -12 -26 -15 -26 -4 0 -3 6 1 13 4 6 -2 3 -13 -8 -11 -11 -19 -22 -17
-24 2 -2 -8 -12 -21 -23 -14 -11 -22 -25 -18 -31 3 -7 3 -9 -2 -5 -10 9 -75
-64 -68 -76 4 -5 1 -6 -4 -3 -6 4 -17 -1 -24 -10 -12 -14 -12 -16 1 -8 13 8
13 6 1 -8 -7 -9 -17 -14 -22 -11 -5 3 -9 -1 -9 -8 0 -8 -16 -30 -36 -51 -20
-20 -33 -37 -30 -37 4 0 -4 -11 -18 -24 -15 -13 -26 -31 -26 -41 0 -10 -3 -15
-7 -12 -5 6 -71 -74 -66 -80 1 -1 -11 -17 -27 -35 -17 -18 -30 -38 -30 -45 0
-7 -3 -13 -7 -13 -8 0 -42 -55 -42 -66 0 -2 -7 -12 -16 -20 -8 -8 -34 -48 -57
-87 -24 -40 -48 -78 -55 -85 -7 -8 -11 -18 -8 -23 4 -5 1 -9 -4 -9 -6 0 -11
-6 -11 -14 0 -7 -7 -19 -15 -26 -9 -7 -13 -15 -11 -17 3 -3 -4 -15 -15 -26
-11 -12 -17 -27 -15 -34 3 -7 2 -13 -2 -13 -8 0 -17 -16 -41 -66 -7 -16 -20
-41 -28 -56 -8 -16 -11 -28 -8 -28 4 0 -1 -7 -9 -16 -9 -8 -14 -20 -11 -25 4
-5 1 -9 -4 -9 -6 0 -11 -5 -11 -11 0 -5 -8 -29 -19 -52 -43 -96 -64 -150 -64
-163 0 -8 -5 -14 -10 -14 -6 0 -8 -3 -5 -6 4 -3 0 -17 -7 -31 -8 -15 -12 -30
-9 -35 3 -4 0 -8 -7 -8 -7 0 -9 -3 -6 -7 4 -3 3 -11 -2 -17 -6 -7 -12 -23 -15
-36 -2 -14 -11 -44 -20 -68 -8 -23 -15 -44 -16 -47 0 -3 -1 -7 -1 -10 -1 -3
-3 -9 -4 -15 -1 -5 -3 -11 -5 -12 -1 -2 -3 -10 -5 -18 -1 -8 -12 -51 -24 -96
-11 -45 -22 -90 -24 -100 -2 -10 -7 -27 -11 -36 -4 -9 -5 -21 -2 -27 4 -5 2
-12 -3 -16 -5 -3 -10 -13 -9 -23 0 -9 -3 -33 -7 -52 -4 -19 -9 -48 -11 -65 -3
-16 -7 -41 -9 -55 -4 -25 -12 -75 -20 -140 -18 -132 -33 -451 -26 -540 1 -14
33 -16 256 -15 142 0 255 4 254 9 0 5 3 12 8 15 6 3 15 26 22 51 6 25 14 54
17 65 4 11 7 28 7 38 1 9 5 17 9 17 4 0 7 3 6 8 -1 4 2 19 6 33 4 14 9 34 11
45 2 10 4 21 6 24 1 3 3 10 4 15 2 6 4 12 5 15 1 3 3 12 5 20 2 8 9 35 16 60
6 25 13 54 14 65 2 11 8 33 14 48 6 16 9 33 5 38 -3 5 -1 9 4 9 5 0 12 17 15
38 8 51 15 80 22 91 5 9 15 58 18 94 1 9 4 17 7 17 3 0 7 8 8 18 6 48 7 57 13
62 4 4 27 86 42 155 2 6 6 16 11 23 4 7 5 16 2 19 -3 3 -1 12 5 20 6 7 8 13 4
13 -4 0 -3 6 2 13 8 10 26 65 24 74 0 2 8 23 19 48 11 25 17 45 13 45 -3 0 0
7 7 15 7 8 9 15 4 15 -4 0 -3 5 4 12 7 7 12 22 12 34 0 12 4 24 10 26 5 2 11
12 13 23 5 24 32 90 53 128 8 15 12 27 8 27 -4 0 0 8 9 18 17 18 41 72 39 85
-1 4 3 7 9 7 5 0 8 4 5 8 -3 5 4 18 14 30 11 12 20 28 20 37 0 8 5 15 12 15 6
0 9 3 5 6 -3 3 3 15 13 27 11 11 17 24 14 29 -3 4 0 8 5 8 6 0 11 6 11 14 0 8
7 17 16 20 8 3 12 10 9 16 -3 6 1 13 9 16 9 3 16 15 16 26 0 10 5 16 10 13 6
-3 10 -1 10 4 0 21 3 26 22 39 10 7 16 18 13 23 -4 5 -2 9 3 9 6 0 23 20 39
45 15 25 31 45 36 45 4 0 7 4 7 9 0 6 11 22 25 37 13 14 22 31 19 36 -3 4 -2
7 3 6 4 -2 10 2 13 7 2 6 16 21 30 35 14 14 43 47 65 75 22 27 56 65 75 85 77
80 100 108 100 120 0 7 3 11 6 7 6 -5 52 35 186 164 26 26 48 44 48 41 0 -3
13 9 29 26 16 16 31 29 33 27 2 -2 25 16 51 39 26 24 47 41 47 37 1 -3 10 5
20 18 11 13 20 20 20 16 0 -8 45 24 77 54 13 12 26 22 30 22 21 3 32 12 26 22
-3 5 -1 7 4 4 6 -4 23 6 39 21 15 15 24 21 20 14 -7 -11 -4 -11 13 0 12 7 21
16 21 21 0 4 5 5 10 2 6 -3 13 1 16 9 3 9 10 13 15 10 5 -3 9 0 9 5 0 6 7 11
15 11 8 0 24 10 36 23 12 12 18 15 14 8 -6 -10 1 -8 21 5 16 11 41 26 57 34
15 7 27 17 27 22 0 5 4 7 9 3 5 -3 15 0 23 7 7 7 20 14 28 16 8 2 17 8 18 13
2 5 7 7 12 4 5 -3 14 0 22 7 7 7 20 14 28 16 8 2 17 7 20 10 3 4 11 7 18 8 29
2 33 5 27 14 -3 6 1 7 9 4 9 -3 16 -1 16 5 0 6 3 10 8 9 16 -3 62 15 62 25 0
6 3 7 6 4 4 -3 16 -1 28 5 11 7 24 13 29 14 4 1 9 3 12 4 3 1 8 3 13 5 4 1 20
7 35 13 16 7 30 12 32 12 2 0 16 5 32 12 15 6 37 13 48 15 11 2 22 8 23 13 2
6 8 8 12 5 5 -3 25 1 45 9 19 8 35 13 35 10 0 -2 14 2 30 11 17 9 30 13 30 11
0 -3 15 0 33 5 17 6 46 13 62 16 17 3 38 9 48 14 9 5 17 8 17 5 0 -3 15 0 33
5 17 5 43 11 57 14 14 3 34 7 45 9 11 2 40 7 65 11 25 4 52 9 61 10 9 2 40 6
70 10 30 4 68 9 84 11 79 12 189 16 405 16 211 1 284 -2 415 -18 22 -2 58 -6
80 -8 22 -3 40 -5 40 -7 0 -1 14 -3 30 -5 17 -2 44 -6 60 -9 17 -3 39 -8 50
-10 11 -2 34 -6 50 -10 17 -3 39 -8 50 -10 32 -7 49 -11 68 -20 10 -4 21 -5
24 -2 3 4 15 1 27 -5 11 -6 30 -13 41 -14 36 -6 50 -9 61 -16 6 -4 21 -9 35
-12 13 -2 36 -9 52 -15 15 -6 27 -8 27 -5 0 4 7 1 15 -6 8 -7 15 -9 15 -5 0 4
6 3 13 -3 6 -6 15 -11 20 -11 4 0 23 -7 42 -15 19 -8 44 -16 57 -18 13 -2 26
-7 29 -11 3 -4 15 -9 27 -10 11 0 18 -5 16 -9 -3 -4 2 -9 10 -9 21 -2 26 -3
61 -19 17 -7 33 -13 37 -12 3 1 12 -5 18 -13 7 -8 21 -15 31 -15 10 0 21 -5
24 -10 4 -6 11 -8 16 -5 5 4 9 1 9 -6 0 -7 3 -10 6 -6 3 3 24 -5 45 -19 21
-13 42 -24 47 -24 4 0 30 -14 56 -30 26 -17 45 -25 41 -18 -4 7 0 5 9 -6 8
-10 20 -15 27 -10 8 4 10 3 5 -4 -6 -11 0 -14 20 -11 4 0 10 -4 13 -9 3 -6 27
-21 53 -35 26 -14 44 -28 41 -31 -4 -3 -1 -6 6 -6 7 0 29 -12 49 -27 20 -16
32 -21 27 -13 -5 8 14 -4 41 -28 28 -23 53 -42 57 -42 4 0 16 -8 26 -17 23
-22 97 -75 106 -77 3 0 29 -22 58 -48 28 -27 57 -48 65 -48 7 0 10 -4 7 -10
-3 -5 -1 -10 4 -10 6 0 21 -11 33 -25 11 -13 25 -22 30 -19 4 3 8 -3 8 -12 0
-10 3 -14 7 -11 3 4 13 -2 20 -13 8 -11 19 -18 24 -14 5 3 8 0 7 -7 -2 -7 3
-13 10 -14 6 0 12 -4 13 -10 1 -15 20 -35 28 -31 4 3 16 -9 26 -25 11 -16 25
-29 32 -29 6 0 15 -9 18 -20 4 -11 11 -18 16 -15 5 4 9 1 9 -5 0 -16 61 -80
71 -74 5 3 9 -1 9 -8 0 -7 21 -37 48 -66 75 -83 102 -116 102 -125 0 -4 5 -5
10 -2 6 3 10 0 10 -7 0 -7 13 -27 28 -45 15 -18 42 -53 61 -78 18 -24 37 -42
42 -39 5 3 8 0 7 -7 -2 -7 8 -18 22 -26 14 -7 21 -13 15 -13 -5 -1 4 -8 20
-17 17 -10 33 -16 38 -15 4 1 7 -3 7 -9 0 -5 4 -8 9 -4 5 3 12 1 15 -4 8 -12
130 -4 134 9 2 6 8 7 13 4 6 -3 16 0 24 6 8 7 15 9 15 4 0 -4 7 1 16 12 8 10
13 12 9 4 -4 -8 1 -6 10 5 9 11 18 19 20 18 12 -7 25 -2 20 7 -4 6 -3 10 2 9
20 -3 32 3 58 29 16 15 25 21 21 15 -12 -21 1 -15 31 15 15 15 28 26 30 25 9
-8 27 0 50 25 15 15 22 20 18 12 -8 -13 -7 -13 11 0 10 8 22 20 26 25 4 6 8 6
8 1 0 -5 8 0 18 10 9 10 24 20 32 22 17 4 84 46 119 76 13 12 21 15 16 7 -4
-7 7 -3 26 10 19 13 36 27 37 32 2 4 10 7 18 7 8 0 14 5 14 11 0 5 5 7 10 4 6
-3 13 1 16 9 3 9 10 14 14 11 5 -3 16 3 26 12 10 10 20 18 23 18 16 2 78 40
94 59 10 11 16 15 12 7 -5 -9 1 -8 19 4 14 10 26 21 26 24 0 4 6 8 13 8 18 0
87 43 87 55 0 5 4 7 10 3 5 -3 18 3 30 15 11 11 22 20 25 20 3 0 8 0 13 0 4 0
21 12 37 28 16 15 31 26 32 25 8 -8 23 -1 18 7 -4 6 -3 10 2 9 18 -3 30 2 51
21 12 12 22 18 22 14 0 -4 12 3 26 17 14 13 26 22 27 21 1 -2 14 2 29 9 15 6
25 16 21 22 -3 6 -1 7 5 3 6 -3 17 1 26 9 8 9 19 15 23 15 4 -1 19 9 32 22 14
13 21 16 17 8 -4 -8 0 -6 9 5 9 11 18 18 20 15 2 -3 13 2 23 10 10 8 25 16 33
18 8 2 22 13 32 25 10 12 15 15 11 7 -7 -13 -6 -13 12 0 10 8 22 20 26 25 5 6
8 6 8 1 0 -6 7 -1 16 10 8 10 12 13 8 5 -7 -14 55 26 68 44 5 6 8 6 8 1 0 -6
7 -1 16 10 8 10 12 13 9 6 -6 -11 -3 -11 13 -1 12 7 18 17 15 23 -3 5 -1 6 5
2 6 -3 17 0 25 8 8 8 17 12 21 9 3 -4 6 -1 6 5 0 7 4 12 10 12 8 0 59 29 135
78 11 6 27 15 35 19 8 3 34 19 57 35 23 15 46 28 52 28 6 0 11 4 11 9 0 5 11
12 25 15 16 4 23 11 19 18 -4 6 -3 8 4 4 6 -3 17 0 25 8 8 8 17 12 21 9 3 -4
6 -1 6 5 0 7 6 12 14 12 7 0 19 7 26 15 7 8 16 13 20 10 4 -3 20 8 36 23 15
15 24 21 20 14 -7 -11 -4 -11 13 0 12 7 21 16 21 21 0 4 4 6 9 3 5 -3 14 1 21
9 7 8 19 15 26 15 8 0 14 5 14 10 0 6 6 10 14 10 8 0 27 11 43 24 28 23 33 26
54 26 5 0 7 5 4 10 -4 6 -3 9 2 8 13 -4 133 62 133 73 0 6 4 8 9 4 5 -3 16 1
24 9 8 8 17 13 19 10 3 -2 11 2 18 11 7 8 18 15 25 15 8 0 15 3 17 8 2 4 23
18 48 31 25 13 51 31 58 39 6 9 12 13 12 9 0 -16 112 92 113 109 0 5 6 14 12
21 20 20 12 131 -14 188 -13 28 -29 53 -35 57 -6 4 -7 8 -2 8 6 0 1 7 -10 15
-10 8 -15 15 -10 15 6 0 1 7 -10 16 -10 8 -12 13 -4 9 13 -6 13 -5 0 7 -9 7
-32 39 -53 71 -21 31 -42 57 -48 57 -5 0 -8 4 -6 9 2 7 -64 103 -83 121 -3 3
-13 16 -22 30 -9 14 -38 53 -64 87 -27 33 -62 78 -79 99 -16 21 -38 46 -47 56
-10 10 -16 18 -13 18 3 0 -3 8 -12 18 -16 17 -40 46 -89 107 -8 11 -12 14 -8
6 5 -9 3 -12 -4 -7 -7 4 -12 12 -12 18 0 6 -10 19 -22 29 -11 11 -18 19 -14
19 4 0 -14 21 -39 47 -25 26 -45 51 -45 55 0 5 -6 8 -14 8 -8 0 -18 5 -22 12
-5 7 -3 8 7 3 8 -5 1 7 -16 27 -16 20 -36 37 -42 37 -7 1 -13 5 -13 10 0 6
-16 27 -36 48 -20 21 -33 32 -29 24 6 -9 4 -12 -4 -7 -6 4 -9 11 -6 16 3 4
-11 22 -30 39 -19 17 -35 34 -35 38 0 4 -13 17 -29 28 -16 10 -27 23 -25 27 3
4 -11 18 -30 30 -20 13 -36 29 -36 36 0 6 -4 12 -9 12 -4 0 -26 18 -47 39 -21
22 -43 37 -48 34 -6 -4 -8 -3 -4 2 4 4 2 12 -5 19 -96 90 -139 128 -132 117 5
-10 4 -12 -3 -7 -7 4 -12 14 -12 22 0 8 -3 14 -7 14 -5 0 -26 17 -49 38 -22
20 -60 53 -83 72 -24 19 -53 44 -64 56 -12 12 -40 34 -62 49 -22 16 -45 34
-50 39 -27 28 -58 50 -51 36 5 -8 -2 -3 -15 11 -31 34 -144 119 -159 119 -6 0
-9 4 -5 9 3 5 -3 12 -14 16 -10 3 -29 15 -42 26 -13 12 -42 33 -64 47 -22 14
-43 30 -47 36 -4 6 -8 7 -8 2 0 -6 -7 -1 -16 10 -8 10 -12 12 -8 4 4 -9 -1 -7
-14 5 -12 11 -27 25 -34 30 -7 6 -22 17 -33 25 -17 13 -18 13 -10 0 4 -8 -3
-4 -17 10 -24 24 -84 61 -93 57 -2 -1 -11 7 -19 18 -9 11 -16 17 -16 13 0 -4
-8 -1 -17 7 -10 8 -22 15 -27 14 -5 0 -12 3 -15 8 -10 15 -103 74 -95 61 5 -7
-10 1 -31 18 -22 17 -53 38 -70 46 -16 8 -51 27 -77 42 -27 15 -48 23 -48 19
0 -4 -7 2 -16 13 -8 10 -13 12 -9 4 4 -10 2 -9 -8 2 -8 10 -17 15 -20 11 -4
-3 -7 -1 -7 6 0 7 -4 9 -10 6 -5 -3 -10 -3 -10 2 0 9 -61 39 -72 35 -5 -1 -8
3 -8 8 0 6 -6 10 -13 10 -7 0 -19 6 -26 13 -6 6 -15 12 -19 12 -4 1 -17 6 -29
13 -13 7 -23 9 -23 5 0 -4 -4 -3 -8 2 -9 13 -104 61 -114 58 -4 -2 -8 2 -8 7
0 6 -6 10 -13 10 -7 0 -38 12 -68 27 -30 15 -56 27 -59 28 -3 0 -15 6 -26 13
-12 6 -24 9 -27 6 -3 -3 -19 4 -35 16 -17 12 -35 19 -41 16 -6 -4 -11 -2 -11
3 0 6 -9 11 -20 11 -11 0 -20 5 -20 11 0 6 -6 9 -14 6 -8 -3 -16 -1 -18 4 -2
6 -10 11 -18 13 -8 2 -28 9 -45 15 -16 7 -34 14 -40 15 -5 1 -20 8 -32 14 -13
7 -23 11 -23 8 0 -3 -12 1 -27 9 -15 8 -30 12 -35 9 -4 -3 -8 0 -8 6 0 7 -7
10 -15 6 -8 -3 -15 -1 -15 4 0 6 -3 9 -7 9 -5 -1 -11 0 -15 1 -5 1 -11 3 -15
5 -5 1 -21 7 -38 14 -16 7 -38 13 -47 14 -10 1 -18 5 -18 10 0 5 -6 7 -14 4
-8 -3 -16 -2 -18 3 -3 8 -43 20 -75 22 -7 1 -13 5 -13 9 0 4 -17 10 -37 15
-43 9 -51 10 -58 14 -3 1 -8 3 -12 5 -5 1 -16 5 -25 9 -10 5 -29 9 -43 10 -14
0 -25 4 -25 9 0 4 -3 6 -7 5 -5 -1 -24 3 -43 10 -19 6 -46 14 -60 16 -14 3
-25 5 -25 6 0 2 -36 10 -57 12 -10 1 -18 5 -18 8 0 3 -8 7 -17 8 -25 2 -45 8
-65 16 -9 4 -22 5 -28 1 -5 -3 -10 -2 -10 4 0 5 -8 10 -17 9 -10 0 -28 3 -40
6 -65 17 -82 21 -138 31 -11 2 -20 4 -20 5 0 2 -29 8 -65 15 -14 2 -36 7 -50
10 -14 4 -36 8 -50 10 -14 1 -32 5 -40 8 -8 3 -31 8 -50 11 -19 3 -48 8 -65
11 -16 4 -43 8 -60 11 -16 2 -43 6 -60 9 -16 3 -46 7 -65 10 -19 2 -35 4 -35
6 0 1 -13 3 -30 5 -93 10 -110 12 -110 14 0 1 -13 4 -30 6 -16 2 -50 6 -75 9
-84 10 -155 18 -182 18 -16 1 -28 4 -28 7 0 3 -26 6 -58 7 -31 1 -88 5 -127 7
-38 3 -140 8 -225 11 -85 3 -185 7 -223 9 -37 1 -68 1 -70 0z m-2567 -5068 c0
-2 -8 -10 -17 -17 -16 -13 -17 -12 -4 4 13 16 21 21 21 13z m-2149 -4623 c13
-16 12 -17 -3 -4 -10 7 -18 15 -18 17 0 8 8 3 21 -13z m280 -300 c13 -16 12
-17 -3 -4 -10 7 -18 15 -18 17 0 8 8 3 21 -13z"/>
</g>
</svg>
